<svg width="480" height="360" viewBox="0 0 480 360" fill="none" xmlns="http://www.w3.org/2000/svg">
  <defs>
    <linearGradient id="bg" x1="0" y1="0" x2="1" y2="1">
      <stop offset="0" stop-color="#FFE8C7"/>
      <stop offset="0.5" stop-color="#FFD1E7"/>
      <stop offset="1" stop-color="#D9F3FF"/>
    </linearGradient>
    <linearGradient id="potato" x1="0" y1="0" x2="1" y2="1">
      <stop offset="0" stop-color="#F9D57A"/>
      <stop offset="1" stop-color="#D8862A"/>
    </linearGradient>
  </defs>
  <rect width="480" height="360" rx="36" fill="url(#bg)"/>
  <circle cx="70" cy="70" r="30" fill="#FF9F1C" opacity="0.6"/>
  <circle cx="420" cy="70" r="26" fill="#2EC4B6" opacity="0.6"/>
  <circle cx="410" cy="300" r="36" fill="#FF5D8F" opacity="0.5"/>
  <ellipse cx="250" cy="200" rx="150" ry="110" fill="url(#potato)"/>
  <ellipse cx="210" cy="170" rx="18" ry="14" fill="#C96D1E" opacity="0.7"/>
  <ellipse cx="310" cy="210" rx="14" ry="11" fill="#F2A94F" opacity="0.7"/>
  <ellipse cx="280" cy="140" rx="10" ry="8" fill="#C96D1E" opacity="0.7"/>
  <path d="M165 205C190 190 220 188 245 196" stroke="#4B245F" stroke-width="4" stroke-linecap="round"/>
  <path d="M180 228C210 216 255 216 285 228" stroke="#4B245F" stroke-width="4" stroke-linecap="round"/>
  <path d="M180 252C215 240 275 240 305 252" stroke="#4B245F" stroke-width="4" stroke-linecap="round"/>
  <text x="52" y="44" font-family="'Space Grotesk', sans-serif" font-size="16" fill="#5C4B6B">AI vibe preview</text>
</svg>
