<svg width="600" height="440" viewBox="0 0 600 440" fill="none" xmlns="http://www.w3.org/2000/svg">
  <defs>
    <linearGradient id="bg" x1="0" y1="0" x2="1" y2="1">
      <stop offset="0" stop-color="#FFF4E5"/>
      <stop offset="0.55" stop-color="#FFE6F2"/>
      <stop offset="1" stop-color="#EAF6FF"/>
    </linearGradient>
    <linearGradient id="potato" x1="0" y1="0" x2="1" y2="1">
      <stop offset="0" stop-color="#FAD78A"/>
      <stop offset="1" stop-color="#D6852C"/>
    </linearGradient>
    <filter id="grain" x="-20%" y="-20%" width="140%" height="140%">
      <feTurbulence type="fractalNoise" baseFrequency="0.8" numOctaves="2" stitchTiles="stitch"/>
      <feColorMatrix type="saturate" values="0.25"/>
      <feComponentTransfer>
        <feFuncA type="table" tableValues="0 0.22"/>
      </feComponentTransfer>
    </filter>
    <filter id="shadow" x="-20%" y="-20%" width="140%" height="140%">
      <feDropShadow dx="0" dy="16" stdDeviation="14" flood-color="#1A1026" flood-opacity="0.28"/>
    </filter>
  </defs>
  <rect width="600" height="440" rx="36" fill="url(#bg)"/>
  <circle cx="90" cy="80" r="34" fill="#FF9F1C" opacity="0.45"/>
  <circle cx="520" cy="90" r="26" fill="#2EC4B6" opacity="0.45"/>
  <circle cx="520" cy="360" r="34" fill="#FF5D8F" opacity="0.4"/>
  <g filter="url(#shadow)">
    <ellipse cx="320" cy="250" rx="180" ry="120" fill="url(#potato)"/>
  </g>
  <ellipse cx="320" cy="250" rx="180" ry="120" filter="url(#grain)" opacity="0.4"/>
  <ellipse cx="255" cy="210" rx="16" ry="12" fill="#C96D1E" opacity="0.7"/>
  <ellipse cx="350" cy="265" rx="12" ry="9" fill="#F2A94F" opacity="0.7"/>
  <ellipse cx="300" cy="185" rx="10" ry="8" fill="#C96D1E" opacity="0.7"/>
  <path d="M210 250C245 228 290 226 320 236" stroke="#4B245F" stroke-width="5" stroke-linecap="round"/>
  <path d="M220 280C260 260 320 260 360 280" stroke="#4B245F" stroke-width="5" stroke-linecap="round"/>
  <path d="M230 310C275 290 350 290 390 310" stroke="#4B245F" stroke-width="5" stroke-linecap="round"/>
</svg>
